<?xml version="1.0"?>
<svg id="Camada_1" data-name="Camada 1" xmlns="http://www.w3.org/2000/svg" viewBox="0 0 617.95 467.73">
  <defs></defs>
  <g>
    <path class="cls-1" fill="#FFFFFF" d="M92.96,414.63h-36.83v-13.32h8.91v-58.9h-8.91v-13.32h23.02c1.66,0,3.19.87,4.05,2.28l27.72,45.74,27.59-45.73c.86-1.42,2.4-2.29,4.06-2.29h23.01v13.32h-8.78v58.9h8.78v13.32h-36.7v-13.32h8.78v-39.68l-23.36,39.22c-2.93,0-3.72,0-6.65.02l-23.61-39.24v39.68h8.91v13.32Z"></path>
    <path class="cls-1" fill="#FFFFFF" d="M203.28,352.07c19.18,0,29.69,11.36,29.69,29.33v5.62h-42.65c1.1,9.04,6.6,15.15,16.98,15.15,7.94,0,13.32-2.32,16.86-5.13l8.06,10.02c-5.62,5.5-15.15,9.04-26.52,9.04-19.92,0-32.99-11-32.99-32.26,0-19.43,11.12-31.77,30.55-31.77M190.24,377.67h27.85c-1.07-7.12-6.05-12.72-14.41-12.72-6.35,0-11.72,5.64-13.43,12.72"></path>
    <path class="cls-1" fill="#FFFFFF" d="M303.62,333.92v63.16c0,2.33,1.89,4.23,4.23,4.23h2.86v13.32h-16.62c-3.67,0-6.88-2.47-7.81-6.02l-.25-.94c-4.64,5.5-11.12,8.43-18.7,8.43-15.4,0-26.52-13.69-26.52-32.14s11.49-31.89,27.74-31.89c7.94,0,13.81,3.3,17.72,8.19v-20.28h-7.09v-10.98h19.5c2.72,0,4.93,2.21,4.93,4.93M271.62,401.73c9.15,0,14.77-6.84,14.77-17.65s-5.62-16.9-14.64-16.9-14.64,6.34-14.64,17.03,5.62,17.53,14.51,17.53"></path>
    <path class="cls-1" fill="#FFFFFF" d="M487.56,325.18c4.52,0,8.68.86,11.61,2.08l-1.96,12.83c-1.95-.37-4.64-.73-7.21-.73-6.84,0-10.26,4.28-10.51,11.24v2.93h15.4v13.32h-15.4v34.46h11.36v13.32h-37.15v-13.32h8.19v-34.46h-9.29v-13.32h9.29v-2.93c.24-17.11,10.14-25.42,25.66-25.42"></path>
    <path class="cls-1" fill="#FFFFFF" d="M532.13,352.07c19.18,0,29.69,11.36,29.69,29.33v5.62h-42.65c1.1,9.04,6.6,15.15,16.98,15.15,7.94,0,13.32-2.32,16.86-5.13l8.06,10.02c-5.62,5.5-15.15,9.04-26.52,9.04-19.92,0-32.99-11-32.99-32.26,0-19.43,11.12-31.77,30.55-31.77M519.09,377.67h27.85c-1.07-7.12-6.05-12.72-14.41-12.72-6.35,0-11.72,5.64-13.43,12.72"></path>
    <path class="cls-1" fill="#FFFFFF" d="M351.9,376.99l-10.02-2.08c-5.87-1.22-8.06-2.32-8.06-5.13,0-3.91,5.74-5.25,11.73-5.25,3.08,0,6.49.43,9.92,1.08.52.1,1.02.23,1.53.38,2.15.67,8.14,2.69,12.87,5.72v-14.82l-.12-.06c-4.89-2.57-14.3-4.77-24.07-4.77-15.15,0-27.37,5.5-27.37,19.55,0,10.39,6.84,15.64,19.31,18.45l9.65,2.08c7.09,1.59,9.9,2.93,9.9,6.35s-4.52,5.13-11.73,5.13c-2.32,0-4.82-.09-7.39-.3-3.53-.29-7-1.1-10.3-2.4-2.56-1.01-5.65-2.4-8.33-4.12v15.86c6.6,2.44,17.72,3.42,26.15,3.42,13.32,0,26.88-4.03,26.88-20.28,0-12.83-9.04-16.62-20.53-18.82"></path>
    <path class="cls-1" fill="#FFFFFF" d="M442.26,401.31c-2.69,0-4.87-2.18-4.87-4.87v-19.08c0-17.11-7.85-25.29-29.01-25.29-.97,0-1.93.01-2.86.03-1.9.05-3.79.23-5.65.61-7.85,1.61-13.35,4.69-15.6,6.12v14.98s8.06-5.97,15.5-7.82c2.3-.58,5.32-.61,7.98-.61,7.72,0,12.51,4.15,12.51,11.98v.49h-11.12c-21.41,0-28.88,7.21-28.88,19.06s6.84,19.18,21.15,19.18c9.5,0,16.44-3.54,19.99-8.43,1.28,4.14,5.11,6.97,9.44,6.97h13.51v-13.32h-2.1ZM420.44,391.84c-.29,6.88-8.2,11.26-15.59,11.26-6.21,0-9.46-2.5-9.46-6.5,0-4.63,3.99-7.13,12.41-7.13h12.63v2.37Z"></path>
  </g>
  <g>
    <path class="cls-2" fill="#08B3A1" d="M340.71,252.61v-.17s5.82-7.6,5.82-7.6h19.22s5.9,7.61,5.9,7.61v.17s-4.76,0-4.76,0l-3.57-4.28h-14.92s-3.02,4.28-3.02,4.28h-4.67Z"></path>
    <g>
      <path class="cls-2" fill="#08B3A1" d="M56.83,295.88v-39.27h31.4v5.62h-25.12v11.22h12.56v5.61h-12.56v11.22h25.12v5.61h-31.4Z"></path>
      <path class="cls-2" fill="#08B3A1" d="M104.12,295.88v-2.8l9.41-16.84-9.41-16.83v-2.81h6.28l9.41,16.84,9.42-16.84h6.28v2.81l-9.41,16.83,9.41,16.84v2.8h-6.28l-9.42-16.83-9.41,16.83h-6.28Z"></path>
      <path class="cls-2" fill="#08B3A1" d="M151.41,295.88v-39.27h25.12l6.28,5.62v11.22l-6.28,5.61h-18.84v16.83h-6.28ZM173.39,273.45l3.13-2.81v-5.61l-3.13-2.8h-15.71v11.22h15.71Z"></path>
      <path class="cls-2" fill="#08B3A1" d="M198.7,295.88v-39.27h31.4v5.62h-25.12v11.22h12.56v5.61h-12.56v11.22h25.12v5.61h-31.4Z"></path>
      <path class="cls-2" fill="#08B3A1" d="M245.99,295.88v-39.27h25.12l6.28,5.62v11.22l-6.28,5.61h-1.57l7.85,14.02v2.8h-6.28l-9.42-16.83h-9.41v16.83h-6.28ZM267.97,273.45l3.13-2.81v-5.61l-3.13-2.8h-15.71v11.22h15.71Z"></path>
      <path class="cls-2" fill="#08B3A1" d="M293.28,295.88v-5.61h12.56v-28.04h-12.56v-5.62h31.4v5.62h-12.56v28.04h12.56v5.61h-31.4Z"></path>
      <path class="cls-2" fill="#08B3A1" d="M340.57,295.88v-39.27h31.4v5.62h-25.12v11.22h12.56v5.61h-12.56v11.22h25.12v5.61h-31.4Z"></path>
      <path class="cls-2" fill="#08B3A1" d="M390.99,295.88v-39.27h6.28l15.71,28.05v-28.05h6.28v39.27h-6.28l-15.71-28.04v28.04h-6.28Z"></path>
      <path class="cls-2" fill="#08B3A1" d="M441.43,295.88l-6.28-5.61v-28.04l6.28-5.62h18.84l6.28,5.62v5.61h-6.28v-2.81l-3.13-2.8h-12.57l-3.13,2.8v22.44l3.13,2.8h12.57l3.13-2.8v-2.81h6.28v5.61l-6.28,5.61h-18.84Z"></path>
      <path class="cls-2" fill="#08B3A1" d="M482.44,295.88v-5.61h12.56v-28.04h-12.56v-5.62h31.4v5.62h-12.56v28.04h12.56v5.61h-31.4Z"></path>
      <path class="cls-2" fill="#08B3A1" d="M529.73,295.88v-30.85l9.41-8.42h12.57l9.41,8.42v30.85h-6.28v-14.02h-18.84v14.02h-6.28ZM554.85,276.24v-8.41l-6.28-5.61h-6.28l-6.28,5.61v8.41h18.84Z"></path>
    </g>
  </g>
  <g>
    <path class="cls-2" fill="#08B3A1" d="M272.22,51.63v56.92c12.5.18,24.71,3.49,35.51,9.61v-56.54c-10.73-6.36-22.97-9.8-35.51-9.99"></path>
    <path class="cls-2" fill="#08B3A1" d="M310.22,61.62v56.54c10.8-6.12,23.01-9.43,35.51-9.61v-56.92c-12.54.19-24.78,3.63-35.51,9.99"></path>
    <path class="cls-2" fill="#08B3A1" d="M398.63,140.28l-49.17-28.67c-6.45,10.71-15.46,19.59-26.19,25.83l48.84,28.48c10.9-6.07,20.04-14.91,26.51-25.64"></path>
    <path class="cls-2" fill="#08B3A1" d="M370.86,168.08l-48.84-28.48c-.15,12.42-3.44,24.63-9.58,35.52l49.17,28.67c6.16-10.92,9.35-23.23,9.26-35.71"></path>
    <path class="cls-2" fill="#08B3A1" d="M219.33,140.28l49.17-28.67c6.45,10.71,15.46,19.59,26.19,25.83l-48.84,28.48c-10.9-6.07-20.04-14.91-26.51-25.64"></path>
    <path class="cls-2" fill="#08B3A1" d="M247.1,168.08l48.84-28.48c.15,12.42,3.44,24.63,9.58,35.52l-49.17,28.67c-6.16-10.92-9.35-23.23-9.26-35.71"></path>
  </g>
</svg>