<?xml version="1.0"?>
<svg fill="#EEF4F5" id="Camada_1" data-name="Camada 1" xmlns="http://www.w3.org/2000/svg" viewBox="0 0 922.27 317.27">
  <defs>
    
  </defs>
  <g>
    <path d="M135.54,79.12v64.17c14.09.2,27.85,3.93,40.03,10.84v-63.74c-12.1-7.17-25.9-11.05-40.03-11.26"></path>
    <path d="M178.37,90.38v63.74c12.18-6.9,25.94-10.63,40.03-10.84v-64.17c-14.13.21-27.93,4.09-40.03,11.26"></path>
    <path d="M278.04,179.06l-55.43-32.32c-7.27,12.07-17.43,22.08-29.52,29.12l55.06,32.11c12.29-6.84,22.59-16.8,29.89-28.91"></path>
    <path d="M246.73,210.4l-55.06-32.11c-.17,14-3.88,27.76-10.8,40.04l55.43,32.32c6.94-12.32,10.54-26.19,10.44-40.25"></path>
    <path d="M75.9,179.06l55.43-32.32c7.27,12.07,17.43,22.08,29.52,29.12l-55.06,32.11c-12.29-6.84-22.59-16.8-29.89-28.91"></path>
    <path d="M107.21,210.4l55.06-32.11c.17,14,3.88,27.76,10.8,40.04l-55.43,32.32c-6.94-12.32-10.54-26.19-10.44-40.25"></path>
  </g>
  <g>
    <path d="M348.52,249.09h-39.11v-14.14h9.47v-62.54h-9.47v-14.14h24.44c1.76,0,3.39.92,4.31,2.42l29.43,48.57,29.29-48.55c.91-1.51,2.55-2.44,4.31-2.44h24.44v14.14h-9.32v62.54h9.32v14.14h-38.97v-14.14h9.33v-42.13l-24.8,41.65c-3.11,0-3.95,0-7.06.02l-25.07-41.67v42.13h9.47v14.14Z"></path>
    <path d="M465.66,182.66c20.37,0,31.53,12.07,31.53,31.14v5.97h-45.28c1.17,9.6,7.01,16.09,18.03,16.09,8.43,0,14.14-2.46,17.91-5.45l8.56,10.64c-5.97,5.84-16.09,9.6-28.16,9.6-21.15,0-35.03-11.68-35.03-34.25,0-20.63,11.81-33.74,32.44-33.74M451.81,209.84h29.57c-1.13-7.56-6.42-13.51-15.31-13.51-6.75,0-12.45,5.99-14.26,13.51"></path>
    <path d="M572.2,163.39v67.07c0,2.48,2.01,4.49,4.49,4.49h3.04v14.14h-17.65c-3.9,0-7.31-2.63-8.3-6.4l-.26-1c-4.93,5.84-11.81,8.95-19.85,8.95-16.35,0-28.16-14.53-28.16-34.12s12.2-33.87,29.45-33.87c8.43,0,14.66,3.5,18.82,8.69v-21.54h-7.53v-11.66h20.71c2.89,0,5.24,2.35,5.24,5.24M538.22,235.39c9.72,0,15.68-7.26,15.68-18.74s-5.97-17.95-15.54-17.95-15.54,6.73-15.54,18.08,5.97,18.61,15.41,18.61"></path>
    <path d="M767.51,154.11c4.8,0,9.21.91,12.33,2.2l-2.08,13.63c-2.07-.39-4.93-.78-7.65-.78-7.27,0-10.9,4.54-11.16,11.94v3.12h16.35v14.14h-16.35v36.59h12.07v14.14h-39.44v-14.14h8.69v-36.59h-9.86v-14.14h9.86v-3.12c.26-18.16,10.77-26.99,27.25-26.99"></path>
    <path d="M814.84,182.66c20.37,0,31.53,12.07,31.53,31.14v5.97h-45.28c1.17,9.6,7.01,16.09,18.03,16.09,8.44,0,14.14-2.46,17.91-5.45l8.56,10.64c-5.97,5.84-16.09,9.6-28.16,9.6-21.15,0-35.03-11.68-35.03-34.25,0-20.63,11.81-33.74,32.44-33.74M801,209.84h29.57c-1.13-7.56-6.42-13.51-15.31-13.51-6.75,0-12.45,5.99-14.26,13.51"></path>
    <path d="M623.46,209.13l-10.64-2.2c-6.23-1.3-8.56-2.47-8.56-5.45,0-4.15,6.1-5.58,12.46-5.58,3.28,0,6.89.45,10.53,1.15.55.11,1.09.24,1.62.41,2.28.71,8.65,2.86,13.67,6.07v-15.74l-.13-.07c-5.19-2.72-15.18-5.06-25.56-5.06-16.09,0-29.07,5.84-29.07,20.76,0,11.03,7.27,16.61,20.5,19.59l10.25,2.21c7.52,1.69,10.51,3.12,10.51,6.75s-4.8,5.45-12.46,5.45c-2.46,0-5.12-.1-7.85-.32-3.75-.31-7.43-1.17-10.94-2.55-2.72-1.07-6-2.55-8.85-4.37v16.84c7.01,2.6,18.81,3.63,27.77,3.63,14.14,0,28.54-4.28,28.54-21.54,0-13.63-9.6-17.65-21.8-19.98"></path>
    <path d="M719.42,234.95c-2.86,0-5.17-2.31-5.17-5.17v-20.26c0-18.17-8.34-26.86-30.8-26.86-1.03,0-2.05.01-3.04.04-2.02.05-4.03.25-6,.65-8.34,1.71-14.18,4.98-16.56,6.5v15.91s8.56-6.34,16.46-8.31c2.45-.62,5.65-.65,8.47-.65,8.2,0,13.28,4.41,13.28,12.72v.52h-11.8c-22.73,0-30.67,7.65-30.67,20.24s7.26,20.37,22.46,20.37c10.09,0,17.46-3.76,21.22-8.95,1.36,4.4,5.43,7.4,10.03,7.4h14.35v-14.14h-2.23ZM696.24,224.89c-.31,7.3-8.71,11.95-16.55,11.95-6.59,0-10.04-2.65-10.04-6.9,0-4.92,4.24-7.57,13.18-7.57h13.42v2.52Z"></path>
  </g>
  <g>
    <path d="M612.32,74.88v-.18s6.18-8.07,6.18-8.07h20.41s6.27,8.08,6.27,8.08v.18s-5.05,0-5.05,0l-3.79-4.55h-15.85s-3.2,4.54-3.2,4.54h-4.96Z"></path>
    <g>
      <path d="M310.88,120.82v-41.7h33.34v5.97h-26.67v11.91h13.34v5.96h-13.34v11.91h26.67v5.96h-33.34Z"></path>
      <path d="M361.1,120.82v-2.97l10-17.88-10-17.87v-2.98h6.67l10,17.88,10.01-17.88h6.67v2.98l-10,17.87,10,17.88v2.97h-6.67l-10.01-17.87-10,17.87h-6.67Z"></path>
      <path d="M411.31,120.82v-41.7h26.67l6.67,5.97v11.91l-6.67,5.96h-20v17.87h-6.67ZM434.66,97l3.33-2.99v-5.96l-3.33-2.97h-16.68v11.91h16.68Z"></path>
      <path d="M461.53,120.82v-41.7h33.34v5.97h-26.67v11.91h13.34v5.96h-13.34v11.91h26.67v5.96h-33.34Z"></path>
      <path d="M511.74,120.82v-41.7h26.67l6.67,5.97v11.91l-6.67,5.96h-1.66l8.33,14.89v2.97h-6.67l-10.01-17.87h-10v17.87h-6.67ZM535.09,97l3.33-2.99v-5.96l-3.33-2.97h-16.68v11.91h16.68Z"></path>
      <path d="M561.96,120.82v-5.96h13.34v-29.78h-13.34v-5.97h33.34v5.97h-13.34v29.78h13.34v5.96h-33.34Z"></path>
      <path d="M612.17,120.82v-41.7h33.34v5.97h-26.67v11.91h13.34v5.96h-13.34v11.91h26.67v5.96h-33.34Z"></path>
      <path d="M665.72,120.82v-41.7h6.67l16.68,29.79v-29.79h6.67v41.7h-6.67l-16.68-29.78v29.78h-6.67Z"></path>
      <path d="M719.27,120.82l-6.67-5.96v-29.78l6.67-5.97h20l6.67,5.97v5.96h-6.67v-2.99l-3.33-2.97h-13.35l-3.33,2.97v23.83l3.33,2.97h13.35l3.33-2.97v-2.98h6.67v5.96l-6.67,5.96h-20Z"></path>
      <path d="M762.82,120.82v-5.96h13.34v-29.78h-13.34v-5.97h33.34v5.97h-13.34v29.78h13.34v5.96h-33.34Z"></path>
      <path d="M813.03,120.82v-32.76l10-8.94h13.35l10,8.94v32.76h-6.67v-14.88h-20v14.88h-6.67ZM839.7,99.97v-8.92l-6.67-5.96h-6.67l-6.67,5.96v8.92h20Z"></path>
    </g>
  </g>
</svg>