<svg width="165" height="181" viewBox="0 0 165 181" fill="none" xmlns="http://www.w3.org/2000/svg">
<g clip-path="url(#clip0_1948_15849)">
<path d="M18.712 0C15.3041 0 12.0855 0.944184 9.37177 2.58077C6.65806 0.944184 3.47103 0 0.0315548 0H0V14.6348H0.0315548C3.43947 14.6348 6.65806 15.579 9.37177 17.2471C12.0855 15.6105 15.3041 14.6348 18.712 14.6348H18.7435V0H18.712Z" fill="#EEF4F5"></path>
<path d="M67.4642 0C64.0563 0 60.8377 0.944184 58.124 2.58077C55.4103 0.944184 52.1917 0 48.7838 0H48.7522V14.6348H48.7838C52.1917 14.6348 55.4103 15.579 58.124 17.2471C60.8377 15.6105 64.0563 14.6348 67.4642 14.6348H67.4957V0H67.4642Z" fill="#EEF4F5"></path>
<path d="M116.216 0C112.808 0 109.59 0.944184 106.876 2.58077C104.162 0.944184 100.944 0 97.536 0H97.5044V14.6348H97.536C100.944 14.6348 104.162 15.579 106.876 17.2471C109.59 15.6105 112.808 14.6348 116.216 14.6348H116.248V0H116.216Z" fill="#EEF4F5"></path>
<path d="M164.968 0C161.56 0 158.342 0.944184 155.628 2.58077C152.914 0.944184 149.696 0 146.288 0H146.256V14.6348H146.288C149.696 14.6348 152.914 15.579 155.628 17.2471C158.342 15.6105 161.56 14.6348 164.968 14.6348H165V0H164.968Z" fill="#EEF4F5"></path>
<path d="M18.712 40.9463C15.3041 40.9463 12.0855 41.8905 9.37177 43.5271C6.65806 41.8905 3.43947 40.9463 0.0315548 40.9463H0V55.5811H0.0315548C3.43947 55.5811 6.65806 56.5253 9.37177 58.1934C12.0855 56.5568 15.3041 55.5811 18.712 55.5811H18.7435V40.9463H18.712Z" fill="#EEF4F5"></path>
<path d="M67.4642 40.9463C64.0563 40.9463 60.8377 41.8905 58.124 43.5271C55.4103 41.8905 52.1917 40.9463 48.7838 40.9463H48.7522V55.5811H48.7838C52.1917 55.5811 55.4103 56.5253 58.124 58.1934C60.8377 56.5568 64.0563 55.5811 67.4642 55.5811H67.4957V40.9463H67.4642Z" fill="#EEF4F5"></path>
<path d="M116.216 40.9463C112.808 40.9463 109.59 41.8905 106.876 43.5271C104.162 41.8905 100.944 40.9463 97.536 40.9463H97.5044V55.5811H97.536C100.944 55.5811 104.162 56.5253 106.876 58.1934C109.59 56.5568 112.808 55.5811 116.216 55.5811H116.248V40.9463H116.216Z" fill="#EEF4F5"></path>
<path d="M164.968 40.9463C161.56 40.9463 158.342 41.8905 155.628 43.5271C152.914 41.8905 149.696 40.9463 146.288 40.9463H146.256V55.5811H146.288C149.696 55.5811 152.914 56.5253 155.628 58.1934C158.342 56.5568 161.56 55.5811 164.968 55.5811H165V40.9463H164.968Z" fill="#EEF4F5"></path>
<path d="M18.712 81.8926C15.3041 81.8926 12.0855 82.8368 9.37177 84.4733C6.65806 82.8368 3.43947 81.8926 0.0315548 81.8926H0V96.5274H0.0315548C3.43947 96.5274 6.65806 97.4716 9.37177 99.1397C12.0855 97.5031 15.3041 96.5274 18.712 96.5274H18.7435V81.8926H18.712Z" fill="#EEF4F5"></path>
<path d="M67.4642 81.8926C64.0563 81.8926 60.8377 82.8368 58.124 84.4733C55.4103 82.8368 52.1917 81.8926 48.7838 81.8926H48.7522V96.5274H48.7838C52.1917 96.5274 55.4103 97.4716 58.124 99.1397C60.8377 97.5031 64.0563 96.5274 67.4642 96.5274H67.4957V81.8926H67.4642Z" fill="#EEF4F5"></path>
<path d="M116.216 81.8926C112.808 81.8926 109.59 82.8368 106.876 84.4733C104.162 82.8368 100.944 81.8926 97.536 81.8926H97.5044V96.5274H97.536C100.944 96.5274 104.162 97.4716 106.876 99.1397C109.59 97.5031 112.808 96.5274 116.216 96.5274H116.248V81.8926H116.216Z" fill="#EEF4F5"></path>
<path d="M164.968 81.8926C161.56 81.8926 158.342 82.8368 155.628 84.4733C152.914 82.8368 149.696 81.8926 146.288 81.8926H146.256V96.5274H146.288C149.696 96.5274 152.914 97.4716 155.628 99.1397C158.342 97.5031 161.56 96.5274 164.968 96.5274H165V81.8926H164.968Z" fill="#EEF4F5"></path>
<path d="M18.712 122.838C15.3041 122.838 12.0855 123.782 9.37177 125.419C6.65806 123.782 3.43947 122.838 0.0315548 122.838H0V137.473H0.0315548C3.43947 137.473 6.65806 138.417 9.37177 140.085C12.0855 138.448 15.3041 137.473 18.712 137.473H18.7435V122.838H18.712Z" fill="#EEF4F5"></path>
<path d="M67.4642 122.838C64.0563 122.838 60.8377 123.782 58.124 125.419C55.4103 123.782 52.1917 122.838 48.7838 122.838H48.7522V137.473H48.7838C52.1917 137.473 55.4103 138.417 58.124 140.085C60.8377 138.448 64.0563 137.473 67.4642 137.473H67.4957V122.838H67.4642Z" fill="#EEF4F5"></path>
<path d="M116.216 122.838C112.808 122.838 109.59 123.782 106.876 125.419C104.162 123.782 100.944 122.838 97.536 122.838H97.5044V137.473H97.536C100.944 137.473 104.162 138.417 106.876 140.085C109.59 138.448 112.808 137.473 116.216 137.473H116.248V122.838H116.216Z" fill="#EEF4F5"></path>
<path d="M164.968 122.838C161.56 122.838 158.342 123.782 155.628 125.419C152.914 123.782 149.696 122.838 146.288 122.838H146.256V137.473H146.288C149.696 137.473 152.914 138.417 155.628 140.085C158.342 138.448 161.56 137.473 164.968 137.473H165V122.838H164.968Z" fill="#EEF4F5"></path>
<path d="M18.712 163.784C15.3041 163.784 12.0855 164.728 9.37177 166.365C6.65806 164.728 3.43947 163.784 0.0315548 163.784H0V178.419H0.0315548C3.43947 178.419 6.65806 179.363 9.37177 181.031C12.0855 179.395 15.3041 178.419 18.712 178.419H18.7435V163.784H18.712Z" fill="#EEF4F5"></path>
<path d="M67.4642 163.784C64.0563 163.784 60.8377 164.728 58.124 166.365C55.4103 164.728 52.1917 163.784 48.7838 163.784H48.7522V178.419H48.7838C52.1917 178.419 55.4103 179.363 58.124 181.031C60.8377 179.395 64.0563 178.419 67.4642 178.419H67.4957V163.784H67.4642Z" fill="#EEF4F5"></path>
<path d="M116.216 163.784C112.808 163.784 109.59 164.728 106.876 166.365C104.162 164.728 100.944 163.784 97.536 163.784H97.5044V178.419H97.536C100.944 178.419 104.162 179.363 106.876 181.031C109.59 179.395 112.808 178.419 116.216 178.419H116.248V163.784H116.216Z" fill="#EEF4F5"></path>
<path d="M164.968 163.784C161.56 163.784 158.342 164.728 155.628 166.365C152.914 164.728 149.696 163.784 146.288 163.784H146.256V178.419H146.288C149.696 178.419 152.914 179.363 155.628 181.031C158.342 179.395 161.56 178.419 164.968 178.419H165V163.784H164.968Z" fill="#EEF4F5"></path>
</g>
<defs>
<clipPath id="clip0_1948_15849">
<rect width="165" height="181" fill="white"></rect>
</clipPath>
</defs>
</svg>